<?xml version="1.0" encoding="UTF-8"?>
<svg version="1.1" xmlns="http://www.w3.org/2000/svg" width="323" height="221">
<path d="M0 0 C106.59 0 213.18 0 323 0 C323 72.93 323 145.86 323 221 C216.41 221 109.82 221 0 221 C0 148.07 0 75.14 0 0 Z " fill="#000000" transform="translate(0,0)"/>
<path d="M0 0 C0.99 0 1.98 0 3 0 C3.02332844 17.45415735 3.0409789 34.90830985 3.05181217 52.36247921 C3.05697525 60.46618609 3.06401816 68.56988331 3.07543945 76.67358398 C3.08538594 83.73422122 3.09185334 90.79485146 3.09408849 97.85549551 C3.09539566 101.59634458 3.09848189 105.33717362 3.10573006 109.07801628 C3.11374324 113.24725113 3.11399116 117.41645084 3.11352539 121.58569336 C3.11712067 122.83509705 3.12071594 124.08450073 3.12442017 125.37176514 C3.1230455 126.50063644 3.12167084 127.62950775 3.12025452 128.79258728 C3.12163721 130.27344771 3.12163721 130.27344771 3.12304783 131.78422451 C3 134 3 134 2 135 C-4.27 135 -10.54 135 -17 135 C-17.33 108.6 -17.66 82.2 -18 55 C-20.94729537 57.63106761 -20.94729537 57.63106761 -22 60 C-22.66 60 -23.32 60 -24 60 C-24 60.66 -24 61.32 -24 62 C-24.66 62 -25.32 62 -26 62 C-26.23847656 62.53753906 -26.47695312 63.07507813 -26.72265625 63.62890625 C-31.29286839 72.11244989 -38.44515698 79.60566121 -44.73193359 86.88330078 C-49.13772067 92.03973804 -53.1558657 97.46869222 -57.11669922 102.97192383 C-58.36563995 104.68211869 -59.67734721 106.34615326 -61 108 C-61.66 108 -62.32 108 -63 108 C-63.20625 108.680625 -63.4125 109.36125 -63.625 110.0625 C-65.1705807 113.36442241 -67.10625049 115.59501615 -69.5625 118.25390625 C-71.08157716 119.96455392 -71.08157716 119.96455392 -72.04296875 122.10546875 C-73 124 -73 124 -75.3125 125.75 C-78.31025808 128.25975095 -79.78604606 130.72824052 -81.75 134.0546875 C-83.47848034 136.74463503 -85.71651985 138.77360685 -88 141 C-88.91592621 142.25642903 -89.81144062 143.52795546 -90.6875 144.8125 C-91.450625 145.864375 -92.21375 146.91625 -93 148 C-93.66 148 -94.32 148 -95 148 C-95.28875 148.5775 -95.5775 149.155 -95.875 149.75 C-96.431875 150.86375 -96.431875 150.86375 -97 152 C-97.309375 152.680625 -97.61875 153.36125 -97.9375 154.0625 C-99.068601 156.12509594 -100.19554917 157.49629098 -102 159 C-102.66 159 -103.32 159 -104 159 C-104.268125 159.556875 -104.53625 160.11375 -104.8125 160.6875 C-108.41818182 167.70909091 -108.41818182 167.70909091 -111 169 C-112.6674606 169.08426094 -114.33825187 169.10725143 -116.0078125 169.09765625 C-116.99394531 169.09443359 -117.98007813 169.09121094 -118.99609375 169.08789062 C-120.02863281 169.07951172 -121.06117187 169.07113281 -122.125 169.0625 C-123.68541016 169.05573242 -123.68541016 169.05573242 -125.27734375 169.04882812 C-127.85161962 169.03701952 -130.42578146 169.02055075 -133 169 C-132.26419849 165.67702543 -131.31722185 163.82997512 -129.0625 161.25 C-128.53785156 160.63640625 -128.01320313 160.0228125 -127.47265625 159.390625 C-126 158 -126 158 -124 158 C-123.773125 157.31035156 -123.54625 156.62070313 -123.3125 155.91015625 C-121.69647749 152.32701111 -119.45480776 149.46914124 -117 146.4375 C-116.50870605 145.82108643 -116.01741211 145.20467285 -115.51123047 144.56958008 C-112.43700751 140.72902478 -109.29477482 136.94965897 -106.125 133.1875 C-102.09810782 128.39997263 -98.27832106 123.48549106 -94.5 118.5 C-79.52765536 98.76382768 -79.52765536 98.76382768 -76 97 C-75.505 95.515 -75.505 95.515 -75 94 C-74.34 94 -73.68 94 -73 94 C-72.731875 93.443125 -72.46375 92.88625 -72.1875 92.3125 C-70.89100504 89.78774666 -69.57523677 87.36285516 -68 85 C-67.34 85 -66.68 85 -66 85 C-65.773125 84.29875 -65.54625 83.5975 -65.3125 82.875 C-63.66158712 79.25871465 -61.7091165 76.91230024 -59 74 C-58.34 74 -57.68 74 -57 74 C-56.79375 73.319375 -56.5875 72.63875 -56.375 71.9375 C-54.89292504 68.77124896 -53.16353562 66.68887696 -50.85546875 64.1015625 C-48.58941514 61.53495862 -46.41975866 58.89843327 -44.25 56.25 C-43.11304687 54.86554688 -43.11304687 54.86554688 -41.953125 53.453125 C-39.91559569 50.96472237 -39.91559569 50.96472237 -38 48 C-37.34 48 -36.68 48 -36 48 C-35.731875 47.2575 -35.46375 46.515 -35.1875 45.75 C-34.04723249 43.10938051 -32.90619694 41.14447156 -31 39 C-30.34 39 -29.68 39 -29 39 C-28.773125 38.484375 -28.54625 37.96875 -28.3125 37.4375 C-26.51782382 34.10452995 -24.50034985 30.85296329 -22 28 C-21.34 28 -20.68 28 -20 28 C-19.79375 27.319375 -19.5875 26.63875 -19.375 25.9375 C-17.89190981 22.76908006 -16.15874543 20.68506875 -13.8515625 18.09375 C-11.61560049 15.56532038 -9.46087279 12.97824 -7.3125 10.375 C-6.56613281 9.47523437 -5.81976563 8.57546875 -5.05078125 7.6484375 C-2.94061146 5.05960771 -2.94061146 5.05960771 -1.41796875 2.1640625 C-0.71607422 1.09285156 -0.71607422 1.09285156 0 0 Z " fill="#F7F7F7" transform="translate(167,37)"/>
<path d="M0 0 C7.59 0 15.18 0 23 0 C23 3 23 3 20.875 5.1875 C20.42253906 5.60773437 19.97007812 6.02796875 19.50390625 6.4609375 C17.13660957 8.88357358 15.27189744 11.65673742 13.33203125 14.42578125 C12.89246094 14.94527344 12.45289063 15.46476562 12 16 C11.34 16 10.68 16 10 16 C9.773125 16.515625 9.54625 17.03125 9.3125 17.5625 C7.51782382 20.89547005 5.50034985 24.14703671 3 27 C2.34 27 1.68 27 1 27 C0.731875 27.556875 0.46375 28.11375 0.1875 28.6875 C-1.10899496 31.21225334 -2.42476323 33.63714484 -4 36 C-4.66 36 -5.32 36 -6 36 C-6.103125 36.598125 -6.20625 37.19625 -6.3125 37.8125 C-7.09701691 40.30869017 -8.09889308 41.25731865 -10 43 C-10.495 43.99 -10.495 43.99 -11 45 C-11.66 45 -12.32 45 -13 45 C-13 45.66 -13 46.32 -13 47 C-13.66 47 -14.32 47 -15 47 C-15.2475 47.7321875 -15.495 48.464375 -15.75 49.21875 C-17.12577351 52.27984606 -18.68318086 54.08388861 -21 56.5 C-24.53250942 60.30945815 -27.8085698 64.2312483 -30.9375 68.375 C-36.18251361 75.30785182 -41.65859796 82.0408007 -47.38623047 88.58349609 C-50.20233124 91.7720701 -50.20233124 91.7720701 -51.5 95.75 C-51.18927121 98.37352862 -51.18927121 98.37352862 -48 100 C-47.63837971 101.32594105 -47.30271961 102.65938457 -47 104 C-46.34 104.33 -45.68 104.66 -45 105 C-45 105.66 -45 106.32 -45 107 C-44.34 107 -43.68 107 -43 107 C-42.9175 107.61875 -42.835 108.2375 -42.75 108.875 C-42.21868674 111.17469437 -42.21868674 111.17469437 -40.0625 111.9375 C-38 113 -38 113 -36.75 115.625 C-36.5025 116.40875 -36.255 117.1925 -36 118 C-35.34 118 -34.68 118 -34 118 C-32.4419912 119.86290289 -30.99611597 121.73183977 -29.5625 123.6875 C-25.96912524 128.48020818 -22.27255957 133.13853202 -18.375 137.6875 C-11.0913553 146.21207131 -4.19093615 155.00639717 2.60546875 163.921875 C4.24080392 166.02406768 5.88665868 168.05652429 7.61328125 170.078125 C10 173 10 173 11.42578125 175.4609375 C13.99138075 179.59900121 17.49118287 182.8875956 20.88085938 186.359375 C25 190.68472413 25 190.68472413 25 194 C21.29248633 194.20427691 17.58642528 194.32794588 13.875 194.4375 C12.82828125 194.49615234 11.7815625 194.55480469 10.703125 194.61523438 C3.0977542 194.78370778 3.0977542 194.78370778 0.09692383 192.64135742 C-1.46007262 190.84321 -2.72969595 189.009139 -4 187 C-4.85596365 185.88683112 -5.72158136 184.78100502 -6.59765625 183.68359375 C-7.42131085 182.60311457 -8.24294414 181.52109141 -9.0625 180.4375 C-9.88546561 179.35191346 -10.70968164 178.26727369 -11.53515625 177.18359375 C-11.93492676 176.65749512 -12.33469727 176.13139648 -12.74658203 175.58935547 C-14.04899365 173.93787521 -15.42236512 172.36655962 -16.80859375 170.78515625 C-19 168 -19 168 -19 165 C-19.66 165 -20.32 165 -21 165 C-21 164.34 -21 163.68 -21 163 C-21.60585937 162.73960937 -22.21171875 162.47921875 -22.8359375 162.2109375 C-25.19204954 160.89253545 -26.1090893 159.82911556 -27.625 157.625 C-30.76725349 153.21936623 -34.21035848 149.12668844 -37.74853516 145.03759766 C-41 141.21578777 -41 141.21578777 -41 139 C-41.66 139 -42.32 139 -43 139 C-44.2890625 137.5390625 -44.2890625 137.5390625 -45.625 135.625 C-46.07101563 134.99851563 -46.51703125 134.37203125 -46.9765625 133.7265625 C-48 132 -48 132 -48 130 C-48.66 130 -49.32 130 -50 130 C-51.3440093 128.00715862 -52.67541292 126.00580329 -54 124 C-55.2375 122.7625 -55.2375 122.7625 -56.5 121.5 C-59.14370938 118.85629062 -60.94359243 116.11576904 -63 113 C-64.57795085 111.17269395 -66.1851632 109.3823119 -67.828125 107.61328125 C-69 106 -69 106 -69 103 C-69.598125 102.9175 -70.19625 102.835 -70.8125 102.75 C-73.70686231 101.75764721 -74.57987775 100.69075795 -76 98 C-75.66254917 93.53815015 -73.8858481 91.2592314 -71 87.9375 C-66.68166523 82.86604765 -62.73774544 77.63775249 -58.84765625 72.23828125 C-58.23792969 71.49964844 -57.62820312 70.76101562 -57 70 C-56.34 70 -55.68 70 -55 70 C-54.731875 69.2575 -54.46375 68.515 -54.1875 67.75 C-53.04723249 65.10938051 -51.90619694 63.14447156 -50 61 C-49.34 61 -48.68 61 -48 61 C-48 60.34 -48 59.68 -48 59 C-47.34 59 -46.68 59 -46 59 C-45.690625 57.9790625 -45.690625 57.9790625 -45.375 56.9375 C-43.94405556 53.88048232 -42.13483033 51.71070029 -39.8984375 49.20703125 C-37.52825002 46.45156638 -35.32720572 43.5770583 -33.125 40.6875 C-32.26325652 39.56231946 -31.40127744 38.43731931 -30.5390625 37.3125 C-30.1152832 36.75949219 -29.69150391 36.20648438 -29.25488281 35.63671875 C-27.3455526 33.14641725 -25.43191554 30.66035189 -23.5 28.1875 C-22.8709375 27.37667969 -22.241875 26.56585938 -21.59375 25.73046875 C-21.0678125 25.15941406 -20.541875 24.58835937 -20 24 C-19.34 24 -18.68 24 -18 24 C-17.7525 23.21625 -17.505 22.4325 -17.25 21.625 C-15.77860006 18.53506013 -14.92681545 18.46340773 -12 17 C-11.31653318 15.34015202 -10.65411685 13.67163195 -10 12 C-8.16374953 9.20412711 -6.25732784 6.47201935 -4 4 C-3.34 4 -2.68 4 -2 4 C-1.34 2.68 -0.68 1.36 0 0 Z " fill="#F6F6F6" transform="translate(257,13)"/>
<path d="M0 0 C0.99 0 1.98 0 3 0 C3.02332844 17.45415735 3.0409789 34.90830985 3.05181217 52.36247921 C3.05697525 60.46618609 3.06401816 68.56988331 3.07543945 76.67358398 C3.08538594 83.73422122 3.09185334 90.79485146 3.09408849 97.85549551 C3.09539566 101.59634458 3.09848189 105.33717362 3.10573006 109.07801628 C3.11374324 113.24725113 3.11399116 117.41645084 3.11352539 121.58569336 C3.11712067 122.83509705 3.12071594 124.08450073 3.12442017 125.37176514 C3.1230455 126.50063644 3.12167084 127.62950775 3.12025452 128.79258728 C3.12117631 129.77982757 3.1220981 130.76706785 3.12304783 131.78422451 C3 134 3 134 2 135 C0.58429877 135.08651611 -0.835595 135.10704904 -2.25390625 135.09765625 C-3.10791016 135.09443359 -3.96191406 135.09121094 -4.84179688 135.08789062 C-5.73962891 135.07951172 -6.63746094 135.07113281 -7.5625 135.0625 C-8.46419922 135.05798828 -9.36589844 135.05347656 -10.29492188 135.04882812 C-12.53001314 135.03700225 -14.76497437 135.0205222 -17 135 C-17.01030746 134.00219513 -17.02061493 133.00439026 -17.03123474 131.97634888 C-17.12885214 122.58800967 -17.23157501 113.19973847 -17.33933926 103.81151009 C-17.39458098 98.98455238 -17.44800298 94.15758863 -17.49731445 89.33056641 C-17.54493957 84.67509448 -17.5972817 80.01969761 -17.65294075 75.36431503 C-17.67337271 73.5852736 -17.69208439 71.80621158 -17.70907402 70.02713394 C-17.73309943 67.54161359 -17.76315646 65.05623576 -17.79467773 62.57080078 C-17.8004332 61.82993225 -17.80618866 61.08906372 -17.81211853 60.32574463 C-17.80757099 56.53665959 -17.80757099 56.53665959 -19 53 C-18.01 53 -17.02 53 -16 53 C-16 79.73 -16 106.46 -16 134 C-10.39 134 -4.78 134 1 134 C1 91.1 1 48.2 1 4 C0.34 4 -0.32 4 -1 4 C-0.67 2.68 -0.34 1.36 0 0 Z " fill="#828282" transform="translate(167,37)"/>
<path d="M0 0 C0.66 0 1.32 0 2 0 C2.495 1.485 2.495 1.485 3 3 C1.8125 4.9453125 1.8125 4.9453125 0 7.125 C-0.64582031 7.91777344 -1.29164063 8.71054687 -1.95703125 9.52734375 C-2.63121094 10.34332031 -3.30539063 11.15929688 -4 12 C-5.23535034 13.55761564 -6.46476633 15.11996074 -7.6875 16.6875 C-8.26242188 17.42226563 -8.83734375 18.15703125 -9.4296875 18.9140625 C-10.81531431 20.75467125 -12.07997495 22.61784936 -13.3125 24.5625 C-13.869375 25.366875 -14.42625 26.17125 -15 27 C-15.66 27 -16.32 27 -17 27 C-17 27.66 -17 28.32 -17 29 C-17.66 29 -18.32 29 -19 29 C-19.268125 29.556875 -19.53625 30.11375 -19.8125 30.6875 C-21.10899496 33.21225334 -22.42476323 35.63714484 -24 38 C-24.66 38 -25.32 38 -26 38 C-26.37318359 38.83337891 -26.37318359 38.83337891 -26.75390625 39.68359375 C-28.22095985 42.41074982 -29.98886002 44.65663723 -31.9375 47.0625 C-32.62714844 47.91972656 -33.31679687 48.77695313 -34.02734375 49.66015625 C-35.61614692 51.54469703 -37.22058755 53.29868089 -39 55 C-39.6875 52.75 -39.6875 52.75 -40 50 C-38.6875 47.6875 -38.6875 47.6875 -37 46 C-36.34 46 -35.68 46 -35 46 C-34.9175 45.4225 -34.835 44.845 -34.75 44.25 C-33.78423392 41.35270175 -32.27278104 39.99729243 -30 38 C-29.01 37.505 -29.01 37.505 -28 37 C-28 36.34 -28 35.68 -28 35 C-27.01 34.505 -27.01 34.505 -26 34 C-25.31044731 32.67835734 -24.64755297 31.34272014 -24 30 C-23.03327536 28.56042092 -22.03215692 27.14341184 -21 25.75 C-20.484375 25.04359375 -19.96875 24.3371875 -19.4375 23.609375 C-18.963125 23.07828125 -18.48875 22.5471875 -18 22 C-17.34 22 -16.68 22 -16 22 C-16 21.34 -16 20.68 -16 20 C-15.34 20 -14.68 20 -14 20 C-14 19.01 -14 18.02 -14 17 C-13.34 17 -12.68 17 -12 17 C-11.7525 16.44441406 -11.505 15.88882813 -11.25 15.31640625 C-9.77137811 12.57633505 -7.97436755 10.34376045 -6 7.9375 C-3.86950813 5.33313035 -1.86787063 2.80180594 0 0 Z " fill="#161616" transform="translate(226,45)"/>
<path d="M0 0 C7.92 0 15.84 0 24 0 C24.33 1.32 24.66 2.64 25 4 C25.6469365 5.6744239 26.30959426 7.34302621 27 9 C26.04270084 10.12588014 25.08412105 11.2506715 24.125 12.375 C23.59132813 13.00148438 23.05765625 13.62796875 22.5078125 14.2734375 C21.38567993 15.55836651 20.20628025 16.79371975 19 18 C18.67 17.01 18.34 16.02 18 15 C17.34 14.67 16.68 14.34 16 14 C17.61594832 11.95880212 19.2856382 9.95927063 21 8 C21.66 8 22.32 8 23 8 C23 7.01 23 6.02 23 5 C19.22828169 5.08076198 15.45819404 5.19361435 11.6875 5.3125 C10.61564453 5.33505859 9.54378906 5.35761719 8.43945312 5.38085938 C7.41142578 5.41630859 6.38339844 5.45175781 5.32421875 5.48828125 C4.37635498 5.51446533 3.42849121 5.54064941 2.4519043 5.56762695 C-0.35160394 6.06200245 -1.25596964 6.80655626 -3 9 C-3.66 7.68 -4.32 6.36 -5 5 C-4.01 4.67 -3.02 4.34 -2 4 C-1.34 2.68 -0.68 1.36 0 0 Z " fill="#171717" transform="translate(257,8)"/>
<path d="M0 0 C0.66 0.99 1.32 1.98 2 3 C1.54109375 3.58007812 1.0821875 4.16015625 0.609375 4.7578125 C-3.53964409 10.02544263 -3.53964409 10.02544263 -7.3125 15.5625 C-7.869375 16.366875 -8.42625 17.17125 -9 18 C-9.66 18 -10.32 18 -11 18 C-11.226875 18.515625 -11.45375 19.03125 -11.6875 19.5625 C-13.48217618 22.89547005 -15.49965015 26.14703671 -18 29 C-18.66 29 -19.32 29 -20 29 C-20.2475 29.556875 -20.495 30.11375 -20.75 30.6875 C-22.21606015 33.39971127 -24.02989471 35.63587365 -26 38 C-26.75 35.25 -26.75 35.25 -27 32 C-25.125 29.8125 -25.125 29.8125 -23 28 C-22.67 27.01 -22.34 26.02 -22 25 C-21.34 25 -20.68 25 -20 25 C-19.67 24.01 -19.34 23.02 -19 22 C-18 21 -17 20 -16 19 C-15.34 17.989375 -14.68 16.97875 -14 15.9375 C-12 13 -12 13 -9 11 C-8.484375 10.13375 -7.96875 9.2675 -7.4375 8.375 C-6.963125 7.59125 -6.48875 6.8075 -6 6 C-5.34 6 -4.68 6 -4 6 C-4 5.34 -4 4.68 -4 4 C-3.34 4 -2.68 4 -2 4 C-2 3.34 -2 2.68 -2 2 C-1.34 2 -0.68 2 0 2 C0 1.34 0 0.68 0 0 Z " fill="#151515" transform="translate(156,47)"/>
<path d="M0 0 C2 3 2 3 1.84765625 4.8984375 C0.76977774 7.57078145 -0.71880277 9.40967691 -2.5625 11.625 C-4.79664683 14.3139553 -6.99095311 16.9876976 -9.0625 19.8046875 C-14.69465975 27.39490279 -14.69465975 27.39490279 -19 28.625 C-19.99 28.74875 -20.98 28.8725 -22 29 C-19.1873506 23.70599885 -15.98895881 19.39545768 -12 14.9375 C-9.02916237 11.59530767 -6.14797722 8.3509916 -3.75 4.56640625 C-3.1725 3.71949219 -2.595 2.87257812 -2 2 C-1.34 2 -0.68 2 0 2 C0 1.34 0 0.68 0 0 Z " fill="#0D0D0D" transform="translate(244,58)"/>
<path d="M0 0 C1.32 0.66 2.64 1.32 4 2 C3.41992188 2.6290625 2.83984375 3.258125 2.2421875 3.90625 C-3.43683827 10.12881289 -8.71708808 16.39345677 -13.25 23.5 C-14.11625 24.7375 -14.11625 24.7375 -15 26 C-15.66 26 -16.32 26 -17 26 C-17.2475 26.5775 -17.495 27.155 -17.75 27.75 C-19.16683317 30.3002997 -20.87627537 32.01785701 -23 34 C-23.33 32.35 -23.66 30.7 -24 29 C-23.01 28.67 -22.02 28.34 -21 28 C-20.64587656 26.67203709 -20.31478446 25.33783393 -20 24 C-18.5625 22.25 -18.5625 22.25 -17 21 C-16.34 21 -15.68 21 -15 21 C-14.67 19.68 -14.34 18.36 -14 17 C-13.34 17 -12.68 17 -12 17 C-11.896875 16.401875 -11.79375 15.80375 -11.6875 15.1875 C-10.90088144 12.68462276 -9.86454169 11.78685245 -8 10 C-7.67 9.01 -7.34 8.02 -7 7 C-6.34 7 -5.68 7 -5 7 C-4.731875 6.401875 -4.46375 5.80375 -4.1875 5.1875 C-3.01506533 3.02775192 -1.80630718 1.64209744 0 0 Z " fill="#171717" transform="translate(125,85)"/>
<path d="M0 0 C0.33 0.99 0.66 1.98 1 3 C0.01 3.33 -0.98 3.66 -2 4 C-1.6596875 5.0828125 -1.6596875 5.0828125 -1.3125 6.1875 C-0.91322979 9.7809319 -1.82635074 11.18230651 -4 14 C-4.66 14 -5.32 14 -6 14 C-6.24878906 14.55171875 -6.49757813 15.1034375 -6.75390625 15.671875 C-8.23495873 18.43898246 -9.99966851 20.78170067 -11.9375 23.25 C-12.62714844 24.14203125 -13.31679687 25.0340625 -14.02734375 25.953125 C-15.00380859 26.96632812 -15.00380859 26.96632812 -16 28 C-16.99 28 -17.98 28 -19 28 C-19.33 28.66 -19.66 29.32 -20 30 C-20.66 29.34 -21.32 28.68 -22 28 C-21.61328125 27.49210937 -21.2265625 26.98421875 -20.828125 26.4609375 C-18.36037951 23.1991155 -15.93496143 19.95952226 -13.75 16.5 C-13.1725 15.675 -12.595 14.85 -12 14 C-11.34 14 -10.68 14 -10 14 C-9.75507812 13.44828125 -9.51015625 12.8965625 -9.2578125 12.328125 C-7.74261886 9.52360509 -5.88915874 7.21896877 -3.875 4.75 C-3.15054688 3.85796875 -2.42609375 2.9659375 -1.6796875 2.046875 C-1.12539062 1.37140625 -0.57109375 0.6959375 0 0 Z " fill="#0A0A0A" transform="translate(116,131)"/>
<path d="M0 0 C0 1.33333333 0 2.66666667 0 4 C0.66 4.33 1.32 4.66 2 5 C1.57589844 5.53367188 1.15179688 6.06734375 0.71484375 6.6171875 C-3.24406324 11.64630452 -6.92757312 16.76498958 -10.421875 22.12890625 C-10.94265625 22.74636719 -11.4634375 23.36382812 -12 24 C-12.99 24 -13.98 24 -15 24 C-15 24.66 -15 25.32 -15 26 C-16.65 26 -18.3 26 -20 26 C-19.505 24.515 -19.505 24.515 -19 23 C-18.34 23 -17.68 23 -17 23 C-16.79375 22.319375 -16.5875 21.63875 -16.375 20.9375 C-14.37810143 16.67139851 -11.30423557 12.15211778 -7 10 C-5.99417137 8.24791141 -4.99076428 6.4941562 -4.01953125 4.72265625 C-2.90640891 2.84186334 -1.6650789 1.41531706 0 0 Z " fill="#181818" transform="translate(91,162)"/>
<path d="M0 0 C0.68707555 2.49064888 1 4.37886292 1 7 C0.34 7 -0.32 7 -1 7 C-1.268125 7.969375 -1.53625 8.93875 -1.8125 9.9375 C-2.204375 10.948125 -2.59625 11.95875 -3 13 C-3.99 13.33 -4.98 13.66 -6 14 C-6 14.99 -6 15.98 -6 17 C-5.01 17.33 -4.02 17.66 -3 18 C-3.33 19.65 -3.66 21.3 -4 23 C-3.34 23 -2.68 23 -2 23 C-2.33 23.99 -2.66 24.98 -3 26 C-3 25.34 -3 24.68 -3 24 C-3.99 23.67 -4.98 23.34 -6 23 C-6 21.68 -6 20.36 -6 19 C-7.32 18.34 -8.64 17.68 -10 17 C-10.35790043 13.73271545 -10.26308732 12.36832225 -8.3203125 9.6484375 C-7.59585938 8.89820312 -6.87140625 8.14796875 -6.125 7.375 C-3.81756264 4.95177725 -1.86264222 2.79396333 0 0 Z " fill="#272727" transform="translate(215,94)"/>
<path d="M0 0 C4.66242142 3.40230752 7.17373515 6.52120545 9 12 C9.99 12.33 10.98 12.66 12 13 C13.6875 15.5625 13.6875 15.5625 15 18 C14.34 18 13.68 18 13 18 C12.67 18.66 12.34 19.32 12 20 C10.62437146 18.71034824 9.29233607 17.37310707 8 16 C8 15.34 8 14.68 8 14 C7.34 14 6.68 14 6 14 C6 13.34 6 12.68 6 12 C5.34 12 4.68 12 4 12 C3.67 10.35 3.34 8.7 3 7 C2.34 7 1.68 7 1 7 C1 6.34 1 5.68 1 5 C0.34 5 -0.32 5 -1 5 C-0.67 3.35 -0.34 1.7 0 0 Z " fill="#1D1D1D" transform="translate(192,124)"/>
<path d="M0 0 C0.66 0.66 1.32 1.32 2 2 C2.70125 2.495 3.4025 2.99 4.125 3.5 C4.74375 3.995 5.3625 4.49 6 5 C6 5.66 6 6.32 6 7 C6.66 7 7.32 7 8 7 C8.66 8.65 9.32 10.3 10 12 C10.66 12 11.32 12 12 12 C12.625 13.8125 12.625 13.8125 13 16 C12.34 16.99 11.68 17.98 11 19 C7.68236915 15.86170055 5.25772113 12.95101197 3 9 C1.36887143 6.63954506 -0.31493664 4.32265491 -2 2 C-1.34 1.34 -0.68 0.68 0 0 Z " fill="#1B1B1B" transform="translate(261,175)"/>
<path d="M0 0 C8.25 0 16.5 0 25 0 C25.66 1.65 26.32 3.3 27 5 C26.04270084 6.12588014 25.08412105 7.2506715 24.125 8.375 C23.59132813 9.00148438 23.05765625 9.62796875 22.5078125 10.2734375 C21.38567993 11.55836651 20.20628025 12.79371975 19 14 C18.67 13.01 18.34 12.02 18 11 C17.34 10.67 16.68 10.34 16 10 C17.61594832 7.95880212 19.2856382 5.95927063 21 4 C21.66 4 22.32 4 23 4 C23 3.01 23 2.02 23 1 C15.41 1 7.82 1 0 1 C0 0.67 0 0.34 0 0 Z " fill="#474747" transform="translate(257,12)"/>
<path d="M0 0 C1.65 0 3.3 0 5 0 C3.59971159 4.45546312 1.35550741 6.81656989 -2 10 C-2.33 10.66 -2.66 11.32 -3 12 C-3.66 12 -4.32 12 -5 12 C-5.28875 12.639375 -5.5775 13.27875 -5.875 13.9375 C-7 16 -7 16 -9 17 C-9.32979236 13.37751889 -9.38612952 11.55940404 -7.28515625 8.515625 C-6.55167969 7.76796875 -5.81820312 7.0203125 -5.0625 6.25 C-2.17759707 3.3748403 -2.17759707 3.3748403 0 0 Z " fill="#1A1A1A" transform="translate(242,25)"/>
<path d="M0 0 C0.33 0.66 0.66 1.32 1 2 C1.66 2.33 2.32 2.66 3 3 C2.34 3 1.68 3 1 3 C0.938125 3.556875 0.87625 4.11375 0.8125 4.6875 C-0.34176979 7.97272942 -2.49388886 9.607803 -5 12 C-6.7140168 13.96484852 -8.35363611 15.97732437 -10 18 C-10.99 17.67 -11.98 17.34 -13 17 C-12.67 15.68 -12.34 14.36 -12 13 C-11.34 13 -10.68 13 -10 13 C-10 12.34 -10 11.68 -10 11 C-9.34 11 -8.68 11 -8 11 C-7.5978125 9.8553125 -7.5978125 9.8553125 -7.1875 8.6875 C-5.70915696 5.34177629 -4.25870301 3.6293515 -1 2 C-0.67 1.34 -0.34 0.68 0 0 Z " fill="#151515" transform="translate(91,128)"/>
<path d="M0 0 C0.33 0 0.66 0 1 0 C1 2.31 1 4.62 1 7 C-1.64738916 8.4606285 -2.89448334 9 -6 9 C-5.79375 9.763125 -5.5875 10.52625 -5.375 11.3125 C-5 14 -5 14 -7 17 C-8.9375 17.625 -8.9375 17.625 -11 18 C-11.99 18.33 -12.98 18.66 -14 19 C-14 18.34 -14 17.68 -14 17 C-13.34 17 -12.68 17 -12 17 C-11.731875 16.2575 -11.46375 15.515 -11.1875 14.75 C-10.04723249 12.10938051 -8.90619694 10.14447156 -7 8 C-6.34 8 -5.68 8 -5 8 C-4.731875 7.4225 -4.46375 6.845 -4.1875 6.25 C-2.97790559 3.95813691 -1.64363461 2.00094648 0 0 Z " fill="#373737" transform="translate(265,32)"/>
<path d="M0 0 C4.6875 3.61328125 4.6875 3.61328125 6 5 C6 5.99 6 6.98 6 8 C2.20847666 8.0867982 -1.58279296 8.14032207 -5.375 8.1875 C-6.45523437 8.21263672 -7.53546875 8.23777344 -8.6484375 8.26367188 C-10.1953125 8.27817383 -10.1953125 8.27817383 -11.7734375 8.29296875 C-12.72653809 8.3086792 -13.67963867 8.32438965 -14.66162109 8.34057617 C-15.43328613 8.22818604 -16.20495117 8.1157959 -17 8 C-17.66 7.01 -18.32 6.02 -19 5 C-11.74 5 -4.48 5 3 5 C2.01 4.01 1.02 3.02 0 2 C0 1.34 0 0.68 0 0 Z " fill="#AAAAAA" transform="translate(276,199)"/>
<path d="M0 0 C0.625 1.875 0.625 1.875 1 4 C0.34 4.66 -0.32 5.32 -1 6 C-0.34 6.66 0.32 7.32 1 8 C0.34 8 -0.32 8 -1 8 C-1 8.66 -1 9.32 -1 10 C-4.34386398 11.01085428 -7.3748118 11.11543463 -10.859375 11.09765625 C-11.97441406 11.09443359 -13.08945312 11.09121094 -14.23828125 11.08789062 C-15.39714844 11.07951172 -16.55601563 11.07113281 -17.75 11.0625 C-18.92433594 11.05798828 -20.09867188 11.05347656 -21.30859375 11.04882812 C-24.20578072 11.03705094 -27.10286454 11.02060326 -30 11 C-29.67 10.01 -29.34 9.02 -29 8 C-29 8.66 -29 9.32 -29 10 C-21.08 9.67 -13.16 9.34 -5 9 C-4.34 7.35 -3.68 5.7 -3 4 C-2.04175747 2.63634717 -1.05278825 1.29205831 0 0 Z " fill="#5C5C5C" transform="translate(63,196)"/>
<path d="M0 0 C2 1.375 2 1.375 4 3 C4 3.66 4 4.32 4 5 C4.66 5 5.32 5 6 5 C7.2890625 6.75 7.2890625 6.75 8.625 9 C9.07101563 9.7425 9.51703125 10.485 9.9765625 11.25 C10.31429687 11.8275 10.65203125 12.405 11 13 C10.34 13 9.68 13 9 13 C8.67 13.66 8.34 14.32 8 15 C7.7525 14.38125 7.505 13.7625 7.25 13.125 C6.18798848 10.86976683 6.18798848 10.86976683 4.0625 10.0625 C1.19665158 8.58615384 0.3126279 6.90159852 -1 4 C-0.6875 1.6875 -0.6875 1.6875 0 0 Z " fill="#1D1D1D" transform="translate(210,147)"/>
<path d="M0 0 C1.87365234 -0.03867188 1.87365234 -0.03867188 3.78515625 -0.078125 C4.82542969 0.03015625 5.86570313 0.1384375 6.9375 0.25 C7.5975 1.24 8.2575 2.23 8.9375 3.25 C2.6675 3.25 -3.6025 3.25 -10.0625 3.25 C-10.0625 2.59 -10.0625 1.93 -10.0625 1.25 C-6.56534756 0.08428252 -3.68446323 0.0457224 0 0 Z " fill="#090909" transform="translate(161.0625,171.75)"/>
<path d="M0 0 C4.20680342 3.35391725 7.35743095 6.2433757 10 11 C10.99 11.66 11.98 12.32 13 13 C12 15 12 15 9 17 C9 16.01 9 15.02 9 14 C8.34 14 7.68 14 7 14 C5.68 11.03 4.36 8.06 3 5 C2.01 5.33 1.02 5.66 0 6 C0 5.01 0 4.02 0 3 C-0.66 2.67 -1.32 2.34 -2 2 C-1.34 1.34 -0.68 0.68 0 0 Z " fill="#272727" transform="translate(223,163)"/>
<path d="M0 0 C0.33 0.66 0.66 1.32 1 2 C1.66 2 2.32 2 3 2 C2.74410214 5.45462112 1.71373837 6.27381547 -0.875 8.75 C-4 11 -4 11 -7 11 C-7 7.22089522 -6.00296038 6.53893899 -3.5 3.8125 C-2.8503125 3.09707031 -2.200625 2.38164063 -1.53125 1.64453125 C-1.0259375 1.10183594 -0.520625 0.55914062 0 0 Z " fill="#2C2C2C" transform="translate(125,120)"/>
<path d="M0 0 C2.97 0.495 2.97 0.495 6 1 C6 1.66 6 2.32 6 3 C6.66 3 7.32 3 8 3 C8 3.66 8 4.32 8 5 C8.66 5 9.32 5 10 5 C10 6.32 10 7.64 10 9 C10.99 9.33 11.98 9.66 13 10 C12.67 11.65 12.34 13.3 12 15 C10.62437146 13.71034824 9.29233607 12.37310707 8 11 C8 10.34 8 9.68 8 9 C7.34 9 6.68 9 6 9 C4.64721885 7.01310269 3.31431695 5.01254782 2 3 C1.34 2.67 0.68 2.34 0 2 C0 1.34 0 0.68 0 0 Z M5 3 C6 5 6 5 6 5 Z " fill="#1F1F1F" transform="translate(215,122)"/>
<path d="M0 0 C1.231394 2.46278801 1.07159196 4.2795055 1 7 C0.34 7 -0.32 7 -1 7 C-1.4021875 8.1446875 -1.4021875 8.1446875 -1.8125 9.3125 C-2.94424112 11.87380884 -3.91223401 13.19692938 -6 15 C-6.99 14.67 -7.98 14.34 -9 14 C-8.67 13.34 -8.34 12.68 -8 12 C-7.34 12 -6.68 12 -6 12 C-5.896875 11.05125 -5.79375 10.1025 -5.6875 9.125 C-5 6 -5 6 -2 4 C-0.80767387 1.94996045 -0.80767387 1.94996045 0 0 Z " fill="#101010" transform="translate(70,188)"/>
<path d="M0 0 C1.98 0.495 1.98 0.495 4 1 C4 1.66 4 2.32 4 3 C4.66 3 5.32 3 6 3 C6 3.66 6 4.32 6 5 C6.66 5 7.32 5 8 5 C8.625 7.375 8.625 7.375 9 10 C8.34 10.66 7.68 11.32 7 12 C4.36 8.7 1.72 5.4 -1 2 C-0.67 1.34 -0.34 0.68 0 0 Z " fill="#1D1D1D" transform="translate(230,138)"/>
<path d="M0 0 C0.82638376 2.89234315 1 4.88742431 1 8 C1.99 8.33 2.98 8.66 4 9 C3.67 10.65 3.34 12.3 3 14 C3.66 14 4.32 14 5 14 C4.67 14.99 4.34 15.98 4 17 C4 16.34 4 15.68 4 15 C3.01 14.67 2.02 14.34 1 14 C1 12.68 1 11.36 1 10 C-0.32 9.34 -1.64 8.68 -3 8 C-3.36923077 3.44615385 -3.36923077 3.44615385 -1.5 1.1875 C-1.005 0.795625 -0.51 0.40375 0 0 Z " fill="#383838" transform="translate(208,103)"/>
<path d="M0 0 C1.32 0.99 2.64 1.98 4 3 C0.375 6 0.375 6 -3 6 C-3.33 7.65 -3.66 9.3 -4 11 C-5.32 11.33 -6.64 11.66 -8 12 C-8 12.66 -8 13.32 -8 14 C-8.66 13.67 -9.32 13.34 -10 13 C-5.05 6.565 -5.05 6.565 0 0 Z " fill="#343434" transform="translate(136,106)"/>
<path d="M0 0 C0.33 0.66 0.66 1.32 1 2 C0.0625 4.625 0.0625 4.625 -1 7 C-0.34 7.33 0.32 7.66 1 8 C-2.28804981 10.91227269 -4.59885603 12.49701212 -9 13 C-6.38888348 8.16459904 -3.62542917 4.12896099 0 0 Z " fill="#3A3A3A" transform="translate(231,74)"/>
<path d="M0 0 C1.1446875 0.12375 1.1446875 0.12375 2.3125 0.25 C-1.6875 7.82142857 -1.6875 7.82142857 -5.6875 10.25 C-6.3475 9.92 -7.0075 9.59 -7.6875 9.25 C-4.49832888 0.4184492 -4.49832888 0.4184492 0 0 Z " fill="#1A1A1A" transform="translate(65.6875,160.75)"/>
<path d="M0 0 C0.33 0.99 0.66 1.98 1 3 C0.01 3.33 -0.98 3.66 -2 4 C-1.773125 4.721875 -1.54625 5.44375 -1.3125 6.1875 C-0.91322979 9.7809319 -1.82635074 11.18230651 -4 14 C-4.66 14 -5.32 14 -6 14 C-6 13.01 -6 12.02 -6 11 C-6.66 10.67 -7.32 10.34 -8 10 C-5.36 6.7 -2.72 3.4 0 0 Z " fill="#363636" transform="translate(116,131)"/>
<path d="M0 0 C1.32 0.33 2.64 0.66 4 1 C3.67 2.32 3.34 3.64 3 5 C2.34 5 1.68 5 1 5 C0.34 6.65 -0.32 8.3 -1 10 C-1.66 10 -2.32 10 -3 10 C-3 9.01 -3 8.02 -3 7 C-3.66 6.67 -4.32 6.34 -5 6 C-3.35 4.02 -1.7 2.04 0 0 Z " fill="#2E2E2E" transform="translate(221,87)"/>
<path d="M0 0 C1.7074998 1.28062485 3.37373596 2.61767557 5 4 C5 4.66 5 5.32 5 6 C5.66 6 6.32 6 7 6 C7.33 7.32 7.66 8.64 8 10 C5.8125 9.9375 5.8125 9.9375 3 9 C1.06842043 6.8282781 -0.48201687 4.47398953 -2 2 C-1.34 2 -0.68 2 0 2 C0 1.34 0 0.68 0 0 Z " fill="#1C1C1C" transform="translate(275,192)"/>
<path d="M0 0 C0.66 0 1.32 0 2 0 C2.5775 1.0725 3.155 2.145 3.75 3.25 C5.48375824 6.3026529 7.3634908 8.64597393 10 11 C9.67 11.66 9.34 12.32 9 13 C7.02 12.34 5.04 11.68 3 11 C3 10.01 3 9.02 3 8 C2.34 8 1.68 8 1 8 C0.67 5.36 0.34 2.72 0 0 Z " fill="#343434" transform="translate(236,178)"/>
<path d="M0 0 C0 5.3682015 -1.46641112 9.9010369 -5 14 C-5.66 14 -6.32 14 -7 14 C-6.33821095 8.54024033 -3.89354461 3.89354461 0 0 Z " fill="#2C2C2C" transform="translate(237,67)"/>
<path d="M0 0 C0.33 0.99 0.66 1.98 1 3 C1.99 3 2.98 3 4 3 C2.1875 5.5 2.1875 5.5 0 8 C-0.99 8 -1.98 8 -3 8 C-3.33 8.66 -3.66 9.32 -4 10 C-4.66 9.34 -5.32 8.68 -6 8 C-4.02 5.36 -2.04 2.72 0 0 Z " fill="#2B2B2B" transform="translate(100,151)"/>
<path d="M0 0 C0.99 0.33 1.98 0.66 3 1 C1.03681826 4.53372712 -1.04070881 7.24479785 -4 10 C-4.8125 7.8125 -4.8125 7.8125 -5 5 C-2.5625 2.1875 -2.5625 2.1875 0 0 Z " fill="#1B1B1B" transform="translate(53,175)"/>
<path d="M0 0 C1.65 0 3.3 0 5 0 C4.2265625 1.0828125 4.2265625 1.0828125 3.4375 2.1875 C1.74650851 4.87639719 1.74650851 4.87639719 2.25 7.6875 C2.93377081 9.99209561 2.93377081 9.99209561 4 12 C2.68 12.33 1.36 12.66 0 13 C-1.29721449 9.10835652 -1.13033993 6.10570774 -1 2 C-0.67 1.34 -0.34 0.68 0 0 Z " fill="#1F1F1F" transform="translate(180,102)"/>
<path d="M0 0 C0.66 0 1.32 0 2 0 C2 0.66 2 1.32 2 2 C2.66 2.33 3.32 2.66 4 3 C3.34 3 2.68 3 2 3 C1.34 4.65 0.68 6.3 0 8 C-1.66666667 8 -3.33333333 8 -5 8 C-3.63055898 5.05043472 -2.12169591 2.47531189 0 0 Z " fill="#1C1C1C" transform="translate(97,119)"/>
<path d="M0 0 C0.33 0.66 0.66 1.32 1 2 C1.66 2.28875 2.32 2.5775 3 2.875 C5 4 5 4 5.75 6.125 C5.87375 7.053125 5.87375 7.053125 6 8 C3 8 3 8 0.375 5.625 C-2 3 -2 3 -3 1 C-2.01 0.67 -1.02 0.34 0 0 Z " fill="#1C1C1C" transform="translate(247,157)"/>
<path d="M0 0 C2 3 2 3 1.625 5.1875 C1.41875 5.785625 1.2125 6.38375 1 7 C-0.32 6.67 -1.64 6.34 -3 6 C-3.33 6.99 -3.66 7.98 -4 9 C-4.66 8.67 -5.32 8.34 -6 8 C-4.7260411 5.96166576 -3.38938077 3.96147874 -2 2 C-1.34 2 -0.68 2 0 2 C0 1.34 0 0.68 0 0 Z M2 2 C4 3 4 3 4 3 Z " fill="#3F3F3F" transform="translate(143,97)"/>
<path d="M0 0 C0.625 1.8125 0.625 1.8125 1 4 C0.01 5.485 0.01 5.485 -1 7 C-2.70884005 5.37660195 -4.37446717 3.70680947 -6 2 C-6 1.34 -6 0.68 -6 0 C-3.50907189 -1.24546405 -2.58919267 -0.7767578 0 0 Z " fill="#393939" transform="translate(273,187)"/>
<path d="M0 0 C0.99 0.33 1.98 0.66 3 1 C1.25 4 1.25 4 -1 7 C-2.32 7 -3.64 7 -5 7 C-4.67 5.68 -4.34 4.36 -4 3 C-3.34 3 -2.68 3 -2 3 C-2 2.34 -2 1.68 -2 1 C-1.34 0.67 -0.68 0.34 0 0 Z " fill="#191919" transform="translate(74,149)"/>
<path d="M0 0 C0.33 0.66 0.66 1.32 1 2 C1.66 2.33 2.32 2.66 3 3 C2.34 3 1.68 3 1 3 C0.9175 3.598125 0.835 4.19625 0.75 4.8125 C-0.20455872 7.5966296 -1.57132271 8.43311142 -4 10 C-4.625 8.1875 -4.625 8.1875 -5 6 C-3 3 -3 3 -1 2 C-0.67 1.34 -0.34 0.68 0 0 Z " fill="#2C2C2C" transform="translate(91,128)"/>
<path d="M0 0 C0.33 0.66 0.66 1.32 1 2 C1.99 1.67 2.98 1.34 4 1 C4 1.66 4 2.32 4 3 C2.36739286 4.37482707 0.69774938 5.70647667 -1 7 C-1.66 7.66 -2.32 8.32 -3 9 C-3.66 8.67 -4.32 8.34 -5 8 C-4.34 6.35 -3.68 4.7 -3 3 C-2.01 3 -1.02 3 0 3 C0 2.01 0 1.02 0 0 Z " fill="#232323" transform="translate(39,192)"/>
<path d="M0 0 C0.66 0.33 1.32 0.66 2 1 C2 1.99 2 2.98 2 4 C1.34 4 0.68 4 0 4 C0 4.99 0 5.98 0 7 C-0.66 7 -1.32 7 -2 7 C-2 7.66 -2 8.32 -2 9 C-2.99 9 -3.98 9 -5 9 C-5 8.01 -5 7.02 -5 6 C-4.34 5.67 -3.68 5.34 -3 5 C-1.9590934 3.35857037 -0.95495674 1.69287785 0 0 Z " fill="#0D0D0D" transform="translate(119,129)"/>
<path d="M0 0 C2 3 2 3 1.625 5.1875 C1.41875 5.785625 1.2125 6.38375 1 7 C-0.32 6.67 -1.64 6.34 -3 6 C-3.33 6.99 -3.66 7.98 -4 9 C-4.66 8.67 -5.32 8.34 -6 8 C-4.7260411 5.96166576 -3.38938077 3.96147874 -2 2 C-1.34 2 -0.68 2 0 2 C0 1.34 0 0.68 0 0 Z " fill="#363636" transform="translate(244,58)"/>
<path d="M0 0 C2.88437779 1.29299694 4.87219421 2.65941363 7 5 C6.67 5.66 6.34 6.32 6 7 C4.1875 6.8125 4.1875 6.8125 2 6 C0.25 3.4375 0.25 3.4375 -1 1 C-0.67 0.67 -0.34 0.34 0 0 Z " fill="#1B1B1B" transform="translate(253,166)"/>
<path d="M0 0 C2.5 2.3125 2.5 2.3125 5 5 C5 5.99 5 6.98 5 8 C3.125 7.8125 3.125 7.8125 1 7 C-0.3125 4.5625 -0.3125 4.5625 -1 2 C-0.67 1.34 -0.34 0.68 0 0 Z " fill="#141414" transform="translate(210,147)"/>
<path d="M0 0 C0.33 0.66 0.66 1.32 1 2 C1.66 2.33 2.32 2.66 3 3 C1.35 4.98 -0.3 6.96 -2 9 C-2.99 8.67 -3.98 8.34 -5 8 C-4.67 6.68 -4.34 5.36 -4 4 C-3.34 4 -2.68 4 -2 4 C-2 3.34 -2 2.68 -2 2 C-1.34 2 -0.68 2 0 2 C0 1.34 0 0.68 0 0 Z " fill="#191919" transform="translate(163,38)"/>
<path d="M0 0 C2 3 2 3 1.625 5.1875 C1.41875 5.785625 1.2125 6.38375 1 7 C0.34 7 -0.32 7 -1 7 C-1.66 7.66 -2.32 8.32 -3 9 C-3.99 8.67 -4.98 8.34 -6 8 C-5.67 7.34 -5.34 6.68 -5 6 C-4.34 6 -3.68 6 -3 6 C-2.690625 5.195625 -2.38125 4.39125 -2.0625 3.5625 C-1 1 -1 1 0 0 Z " fill="#404040" transform="translate(272,23)"/>
<path d="M0 0 C0.99 0.33 1.98 0.66 3 1 C2.45773019 4.79588866 0.79872437 6.47211993 -2 9 C-2.6875 6.75 -2.6875 6.75 -3 4 C-1.5625 1.6875 -1.5625 1.6875 0 0 Z " fill="#0A0A0A" transform="translate(33,198)"/>
<path d="M0 0 C0 1.33333333 0 2.66666667 0 4 C0.66 4.33 1.32 4.66 2 5 C0.68 6.32 -0.64 7.64 -2 9 C-2 8.34 -2 7.68 -2 7 C-3.32 7.33 -4.64 7.66 -6 8 C-4.02 5.36 -2.04 2.72 0 0 Z " fill="#424242" transform="translate(91,162)"/>
<path d="M0 0 C1.32 0.66 2.64 1.32 4 2 C2.35 3.98 0.7 5.96 -1 8 C-1.66 7.34 -2.32 6.68 -3 6 C-2.63318342 3.06546739 -2.13562754 2.13562754 0 0 Z " fill="#202020" transform="translate(189,92)"/>
<path d="M0 0 C-2.475 3.465 -2.475 3.465 -5 7 C-7 4 -7 4 -6.75 1.875 C-5.2584078 -1.8539805 -3.73264342 -0.93316085 0 0 Z " fill="#1F1F1F" transform="translate(136,78)"/>
<path d="M0 0 C0.66 0.99 1.32 1.98 2 3 C1.50628906 3.40992188 1.01257813 3.81984375 0.50390625 4.2421875 C-0.13675781 4.78101562 -0.77742187 5.31984375 -1.4375 5.875 C-2.07558594 6.40867187 -2.71367187 6.94234375 -3.37109375 7.4921875 C-5.10805004 8.9222757 -5.10805004 8.9222757 -6 11 C-6.66 10.67 -7.32 10.34 -8 10 C-5.36 6.7 -2.72 3.4 0 0 Z " fill="#C6C6C6" transform="translate(219,60)"/>
<path d="M0 0 C0.99 0.66 1.98 1.32 3 2 C1.35 4.31 -0.3 6.62 -2 9 C-2.99 8.34 -3.98 7.68 -5 7 C-4.67 6.01 -4.34 5.02 -4 4 C-3.34 3.67 -2.68 3.34 -2 3 C-2 2.34 -2 1.68 -2 1 C-1.34 0.67 -0.68 0.34 0 0 Z " fill="#1F1F1F" transform="translate(46,184)"/>
<path d="M0 0 C0.99 0.33 1.98 0.66 3 1 C1.8125 3.4375 1.8125 3.4375 0 6 C-2.6875 6.8125 -2.6875 6.8125 -5 7 C-2.25 1.125 -2.25 1.125 0 0 Z " fill="#0F0F0F" transform="translate(94,160)"/>
<path d="M0 0 C0.66 0.99 1.32 1.98 2 3 C0.35 4.65 -1.3 6.3 -3 8 C-3.99 7.67 -4.98 7.34 -6 7 C-6 6.34 -6 5.68 -6 5 C-4.04072937 3.2856382 -2.04119788 1.61594832 0 0 Z " fill="#161616" transform="translate(250,17)"/>
<path d="M0 0 C3 2 3 2 3.6875 4.625 C3.790625 5.40875 3.89375 6.1925 4 7 C2.125 6.6875 2.125 6.6875 0 6 C-0.66 5.01 -1.32 4.02 -2 3 C-1.34 2.01 -0.68 1.02 0 0 Z " fill="#0B0B0B" transform="translate(234,177)"/>
<path d="M0 0 C1 2 1 2 0.1875 4.5 C-1 7 -1 7 -3 9 C-3.99 8.67 -4.98 8.34 -6 8 C-4.625 5.5 -4.625 5.5 -3 3 C-2.34 3 -1.68 3 -1 3 C-0.67 2.01 -0.34 1.02 0 0 Z " fill="#424242" transform="translate(107,142)"/>
<path d="M0 0 C0.33 0.66 0.66 1.32 1 2 C0 5 0 5 -2 6 C-2.33 6.99 -2.66 7.98 -3 9 C-3.99 8.67 -4.98 8.34 -6 8 C-2.25 1.125 -2.25 1.125 0 0 Z " fill="#0D0D0D" transform="translate(146,59)"/>
<path d="M0 0 C0.66 1.32 1.32 2.64 2 4 C0.71937515 5.7074998 -0.61767557 7.37373596 -2 9 C-2.66 9 -3.32 9 -4 9 C-4 7.35 -4 5.7 -4 4 C-3.34 4 -2.68 4 -2 4 C-1.34 2.68 -0.68 1.36 0 0 Z " fill="#0D0D0D" transform="translate(270,28)"/>
<path d="M0 0 C0.33 0.99 0.66 1.98 1 3 C1.99 3.33 2.98 3.66 4 4 C3.67 5.65 3.34 7.3 3 9 C1.62437146 7.71034824 0.29233607 6.37310707 -1 5 C-1 4.34 -1 3.68 -1 3 C-1.66 2.67 -2.32 2.34 -3 2 C-2.01 1.34 -1.02 0.68 0 0 Z " fill="#2A2A2A" transform="translate(224,128)"/>
<path d="M0 0 C0 1.98 0 3.96 0 6 C-0.99 6.33 -1.98 6.66 -3 7 C-3 6.34 -3 5.68 -3 5 C-3.66 4.67 -4.32 4.34 -5 4 C-1.125 0 -1.125 0 0 0 Z " fill="#2D2D2D" transform="translate(150,91)"/>
<path d="M0 0 C1.231394 2.46278801 1.07159196 4.2795055 1 7 C-0.98 7.33 -2.96 7.66 -5 8 C-4.67 7.01 -4.34 6.02 -4 5 C-3.34 4.67 -2.68 4.34 -2 4 C-0.86649466 1.98330173 -0.86649466 1.98330173 0 0 Z " fill="#373737" transform="translate(70,188)"/>
<path d="M0 0 C0.66 0.99 1.32 1.98 2 3 C1.67 3.99 1.34 4.98 1 6 C-0.65 6.33 -2.3 6.66 -4 7 C-4 7.66 -4 8.32 -4 9 C-4.66 8.67 -5.32 8.34 -6 8 C-5.67 7.34 -5.34 6.68 -5 6 C-4.34 6 -3.68 6 -3 6 C-2.690625 5.195625 -2.38125 4.39125 -2.0625 3.5625 C-1 1 -1 1 0 0 Z " fill="#4E4E4E" transform="translate(77,179)"/>
<path d="M0 0 C1.98 0.495 1.98 0.495 4 1 C4 2.98 4 4.96 4 7 C2.35 5.35 0.7 3.7 -1 2 C-0.67 1.34 -0.34 0.68 0 0 Z " fill="#1F1F1F" transform="translate(239,149)"/>
<path d="M0 0 C0.66 0.66 1.32 1.32 2 2 C1.625 4.125 1.625 4.125 1 6 C-0.32 6 -1.64 6 -3 6 C-2.42655063 3.13275314 -2.1385485 2.1385485 0 0 Z " fill="#0F0F0F" transform="translate(185,96)"/>
<path d="M0 0 C1.65 1.65 3.3 3.3 5 5 C4.01 5.495 4.01 5.495 3 6 C2.67 6.66 2.34 7.32 2 8 C1.01 7.34 0.02 6.68 -1 6 C-1 5.34 -1 4.68 -1 4 C-0.34 4 0.32 4 1 4 C0.67 2.68 0.34 1.36 0 0 Z " fill="#2F2F2F" transform="translate(202,136)"/>
<path d="M0 0 C0.99 0.66 1.98 1.32 3 2 C1.625 4.5 1.625 4.5 0 7 C-0.66 7 -1.32 7 -2 7 C-2.33 7.99 -2.66 8.98 -3 10 C-3.33 9.01 -3.66 8.02 -4 7 C-3.01 6.67 -2.02 6.34 -1 6 C-0.67 4.02 -0.34 2.04 0 0 Z " fill="#212121" transform="translate(147,58)"/>
<path d="M0 0 C1.32 0 2.64 0 4 0 C4 0.99 4 1.98 4 3 C2.02 3.99 2.02 3.99 0 5 C-0.66 4.34 -1.32 3.68 -2 3 C-1.34 2.01 -0.68 1.02 0 0 Z " fill="#313131" transform="translate(248,53)"/>
<path d="M0 0 C1.65 0 3.3 0 5 0 C4.67 0.99 4.34 1.98 4 3 C2.02 3.33 0.04 3.66 -2 4 C-1.34 2.68 -0.68 1.36 0 0 Z " fill="#101010" transform="translate(242,25)"/>
<path d="M0 0 C2.16874252 0.50603992 3.99967627 0.99983813 6 2 C5 4 5 4 2 6 C2 5.01 2 4.02 2 3 C1.34 3 0.68 3 0 3 C0 2.01 0 1.02 0 0 Z " fill="#2F2F2F" transform="translate(230,174)"/>
<path d="M0 0 C0.99 0.33 1.98 0.66 3 1 C2.25 2.9375 2.25 2.9375 1 5 C-1.125 5.75 -1.125 5.75 -3 6 C-3 3 -3 3 -1.5 1.3125 C-0.7575 0.6628125 -0.7575 0.6628125 0 0 Z " fill="#060606" transform="translate(140,103)"/>
<path d="M0 0 C0.66 0.33 1.32 0.66 2 1 C0.02 3.31 -1.96 5.62 -4 8 C-4 5.33579484 -3.90837763 3.47739354 -3 1 C-2.01 0.67 -1.02 0.34 0 0 Z " fill="#0F0F0F" transform="translate(136,111)"/>
<path d="M0 0 C0.66 0.33 1.32 0.66 2 1 C1.67 2.65 1.34 4.3 1 6 C-0.32 5.34 -1.64 4.68 -3 4 C-2.34 4 -1.68 4 -1 4 C-0.67 2.68 -0.34 1.36 0 0 Z " fill="#0F0F0F" transform="translate(192,87)"/>
<path d="M0 0 C0.99 0.66 1.98 1.32 3 2 C1.68 3.65 0.36 5.3 -1 7 C-1.625 4.625 -1.625 4.625 -2 2 C-1.34 1.34 -0.68 0.68 0 0 Z " fill="#1F1F1F" transform="translate(218,56)"/>
<path d="M0 0 C0.99 0 1.98 0 3 0 C2.67 1.65 2.34 3.3 2 5 C0.68 4.67 -0.64 4.34 -2 4 C-1.34 2.68 -0.68 1.36 0 0 Z " fill="#0A0A0A" transform="translate(251,14)"/>
</svg>
